<?xml version="1.0" encoding="utf-8"?>
<!-- Generator: Adobe Illustrator 16.0.0, SVG Export Plug-In . SVG Version: 6.00 Build 0)  -->
<!DOCTYPE svg PUBLIC "-//W3C//DTD SVG 1.1//EN" "http://www.w3.org/Graphics/SVG/1.1/DTD/svg11.dtd">
<svg version="1.1" id="Layer_1" xmlns="http://www.w3.org/2000/svg" xmlns:xlink="http://www.w3.org/1999/xlink" x="0px" y="0px"
	 width="218.407px" height="53.506px" viewBox="0 0 218.407 53.506" enable-background="new 0 0 218.407 53.506"
	 xml:space="preserve">
<path fill="none" stroke="#FFFFFA" stroke-miterlimit="10" d="M38.848,19.946c0,10.589-8.584,19.174-19.174,19.174
	C9.084,39.12,0.5,30.535,0.5,19.946c0-6.627,5.434-19.174,19.174-19.174C30.264,0.772,38.848,9.357,38.848,19.946z"/>
<polygon fill="#97C03D" points="17.054,22.891 9.474,10.872 22.295,17.002 "/>
<polygon fill="#FEFEFE" points="22.295,17.002 29.874,29.022 17.054,22.891 "/>
<g>
	<path fill="#FEFEFE" d="M64.188,34.435l-0.109,0.164c-0.598,0.926-1.324,1.744-2.178,2.451c-2.053,1.709-4.424,2.562-7.111,2.562
		h-0.027c-2.67,0-5.039-0.854-7.111-2.562c-0.889-0.744-1.643-1.598-2.26-2.561V5.122c0.617-0.962,1.371-1.807,2.26-2.533
		C49.724,0.863,52.103,0,54.79,0s5.066,0.863,7.139,2.588c0.889,0.727,1.643,1.571,2.26,2.533l-2.26,0.708
		c-1.799-2.379-4.178-3.569-7.139-3.569c-2.979,0-5.357,1.19-7.139,3.569v27.952c1.781,2.361,4.16,3.551,7.139,3.568
		c2.961-0.018,5.33-1.207,7.111-3.568l0.027-0.055V22.694c-1.781-2.38-4.16-3.569-7.139-3.569v-2.289h0.027
		c2.67,0.018,5.039,0.881,7.111,2.587c0.889,0.728,1.643,1.581,2.26,2.562V34.435z"/>
	<path fill="#FEFEFE" d="M67.784,37.022c-0.889-0.725-1.643-1.57-2.26-2.533v-17.68h2.26v16.946
		c1.799,2.396,4.178,3.596,7.139,3.596c2.979,0,5.357-1.199,7.137-3.596V16.809h2.262v17.68c-0.617,0.963-1.371,1.809-2.262,2.533
		c-2.07,1.727-4.449,2.59-7.137,2.59C72.233,39.612,69.854,38.749,67.784,37.022z"/>
	<path fill="#FEFEFE" d="M91.052,11.415c0.363,0,0.545,0.182,0.545,0.545v1.744h-2.289v-2.289H91.052z M89.308,16.809h2.289v22.53
		h-2.289V16.809z"/>
	<path fill="#FEFEFE" d="M113.335,19.098c0.891,0.745,1.645,1.599,2.262,2.562v17.68h-9.398c-2.689,0-5.068-0.861-7.139-2.588
		c-0.889-0.727-1.643-1.57-2.26-2.533V21.659c0.617-0.963,1.371-1.816,2.26-2.562c2.07-1.707,4.449-2.561,7.139-2.561
		C108.886,16.537,111.265,17.391,113.335,19.098z M113.335,22.366c-1.779-2.379-4.158-3.568-7.137-3.568
		c-2.961,0-5.34,1.189-7.139,3.568v11.115c1.799,2.398,4.178,3.596,7.139,3.596h7.137V22.366z"/>
</g>
<g>
	<path fill="#97C03D" d="M162.899,14.187l-1.213-1.591c1.029-0.783,2.322-1.756,3.223-2.427l1.195,1.604
		C165.208,12.441,163.921,13.409,162.899,14.187z"/>
</g>
<path fill="#97C03D" d="M139.483,2.588c0.889,0.745,1.652,1.598,2.289,2.561v34.19h-2.289V19.37h-14.33v19.969h-2.289V5.149
	c0.637-0.962,1.398-1.816,2.289-2.561C127.224,0.863,129.612,0,132.317,0C135.024,0,137.413,0.863,139.483,2.588z M139.483,17.109
	V5.885c-1.799-2.397-4.188-3.596-7.166-3.596c-2.996,0-5.385,1.199-7.164,3.596v11.224H139.483z"/>
<path fill="#97C03D" d="M148.937,36.751c-0.891-0.744-1.652-1.607-2.287-2.588V0.272h2.287v33.182
	c1.799,2.398,4.186,3.596,7.166,3.596v2.289C153.396,39.339,151.007,38.478,148.937,36.751z"/>
<rect x="161.005" y="16.809" fill="#97C03D" width="2.289" height="22.53"/>
<path fill="#97C03D" d="M185.007,19.125c0.889,0.727,1.643,1.571,2.262,2.534V34.19c-0.619,0.963-1.373,1.816-2.262,2.561
	c-2.053,1.707-4.414,2.561-7.084,2.561h-7.164v14.193h-2.262V21.659c0.617-0.963,1.371-1.808,2.262-2.534
	c2.07-1.726,4.449-2.588,7.137-2.588C180.565,16.537,182.937,17.399,185.007,19.125z M185.007,22.366
	c-1.781-2.379-4.15-3.568-7.111-3.568c-2.979,0-5.357,1.189-7.137,3.568V37.05h7.137c2.961,0,5.33-1.188,7.111-3.568V22.366z"/>
<path fill="#97C03D" d="M194.024,11.415c0.363,0,0.545,0.182,0.545,0.545v1.744h-2.289v-2.289H194.024z M192.28,16.809h2.289v22.53
	h-2.289V16.809z"/>
<path fill="#97C03D" d="M216.146,19.098c0.891,0.727,1.645,1.571,2.262,2.534v12.885c-0.617,0.963-1.371,1.809-2.262,2.533
	c-2.033,1.709-4.377,2.562-7.029,2.562h-0.027c-2.668,0-5.021-0.854-7.055-2.562c-0.891-0.725-1.645-1.57-2.262-2.533V21.632
	c0.617-0.963,1.371-1.808,2.262-2.534c2.033-1.707,4.387-2.561,7.055-2.561C211.759,16.537,214.112,17.391,216.146,19.098z
	 M216.146,22.312c-1.762-2.36-4.113-3.542-7.057-3.542c-2.941,0-5.293,1.182-7.055,3.542V33.81c1.762,2.361,4.113,3.541,7.055,3.541
	c2.943,0,5.295-1.18,7.057-3.541V22.312z"/>
<polygon fill="#FEFEFE" points="38.491,18.604 38.491,21.289 32.203,19.946 "/>
<polygon fill="#FEFEFE" points="0.391,21.112 0.391,18.427 6.678,19.77 "/>
<polygon fill="#FEFEFE" points="21.18,39.104 18.495,39.104 19.837,32.816 "/>
<polygon fill="#FEFEFE" points="18.332,0.772 21.017,0.772 19.674,7.06 "/>
</svg>
