<svg id="Layer_1" xmlns="http://www.w3.org/2000/svg" width="218.407" height="53.506" viewBox="0 0 218.407 53.506"><path fill="none" stroke="#FFFFFA" stroke-miterlimit="10" d="M38.848 19.946c0 10.589-8.584 19.174-19.174 19.174S.5 30.535.5 19.946C.5 13.319 5.934.772 19.674.772c10.59 0 19.174 8.585 19.174 19.174z"/><path fill="#97C03D" d="M17.054 22.891l-7.58-12.019 12.821 6.13z"/><path fill="#FEFEFE" d="M22.295 17.002l7.579 12.02-12.82-6.131zm41.893 17.433l-.109.164a10.703 10.703 0 0 1-2.178 2.451c-2.053 1.709-4.424 2.562-7.111 2.562h-.027c-2.67 0-5.039-.854-7.111-2.562a11.213 11.213 0 0 1-2.26-2.561V5.122a10.735 10.735 0 0 1 2.26-2.533C49.724.863 52.103 0 54.79 0s5.066.863 7.139 2.588a10.755 10.755 0 0 1 2.26 2.533l-2.26.708C60.13 3.45 57.751 2.26 54.79 2.26c-2.979 0-5.357 1.19-7.139 3.569v27.952c1.781 2.361 4.16 3.551 7.139 3.568 2.961-.018 5.33-1.207 7.111-3.568l.027-.055V22.694c-1.781-2.38-4.16-3.569-7.139-3.569v-2.289h.027c2.67.018 5.039.881 7.111 2.587a10.546 10.546 0 0 1 2.26 2.562v12.45zm3.596 2.587a10.696 10.696 0 0 1-2.26-2.533v-17.68h2.26v16.946c1.799 2.396 4.178 3.596 7.139 3.596 2.979 0 5.357-1.199 7.137-3.596V16.809h2.262v17.68a10.642 10.642 0 0 1-2.262 2.533c-2.07 1.727-4.449 2.59-7.137 2.59-2.69 0-5.069-.863-7.139-2.59zm23.268-25.607c.363 0 .545.182.545.545v1.744h-2.289v-2.289h1.744zm-1.744 5.394h2.289v22.53h-2.289v-22.53zm24.027 2.289a11.2 11.2 0 0 1 2.262 2.562v17.68h-9.398c-2.689 0-5.068-.861-7.139-2.588a10.735 10.735 0 0 1-2.26-2.533v-12.56a11.26 11.26 0 0 1 2.26-2.562c2.07-1.707 4.449-2.561 7.139-2.561 2.687.001 5.066.855 7.136 2.562zm0 3.268c-1.779-2.379-4.158-3.568-7.137-3.568-2.961 0-5.34 1.189-7.139 3.568v11.115c1.799 2.398 4.178 3.596 7.139 3.596h7.137V22.366z"/><path fill="#97C03D" d="M162.899 14.187l-1.213-1.591a434.623 434.623 0 0 1 3.223-2.427l1.195 1.604c-.896.668-2.183 1.636-3.205 2.414zM139.483 2.588a11.867 11.867 0 0 1 2.289 2.561v34.19h-2.289V19.37h-14.33v19.969h-2.289V5.149a11.838 11.838 0 0 1 2.289-2.561C127.224.863 129.612 0 132.317 0c2.707 0 5.096.863 7.166 2.588zm0 14.521V5.885c-1.799-2.397-4.188-3.596-7.166-3.596-2.996 0-5.385 1.199-7.164 3.596v11.224h14.33zm9.454 19.642a11.466 11.466 0 0 1-2.287-2.588V.272h2.287v33.182c1.799 2.398 4.186 3.596 7.166 3.596v2.289c-2.707 0-5.096-.861-7.166-2.588zm12.068-19.942h2.289v22.53h-2.289zm24.002 2.316a10.793 10.793 0 0 1 2.262 2.534V34.19a11.29 11.29 0 0 1-2.262 2.561c-2.053 1.707-4.414 2.561-7.084 2.561h-7.164v14.193h-2.262V21.659a10.685 10.685 0 0 1 2.262-2.534c2.07-1.726 4.449-2.588 7.137-2.588 2.669 0 5.041.862 7.111 2.588zm0 3.241c-1.781-2.379-4.15-3.568-7.111-3.568-2.979 0-5.357 1.189-7.137 3.568V37.05h7.137c2.961 0 5.33-1.188 7.111-3.568V22.366zm9.017-10.951c.363 0 .545.182.545.545v1.744h-2.289v-2.289h1.744zm-1.744 5.394h2.289v22.53h-2.289v-22.53zm23.866 2.289a10.705 10.705 0 0 1 2.262 2.534v12.885a10.642 10.642 0 0 1-2.262 2.533c-2.033 1.709-4.377 2.562-7.029 2.562h-.027c-2.668 0-5.021-.854-7.055-2.562a10.661 10.661 0 0 1-2.262-2.533V21.632a10.685 10.685 0 0 1 2.262-2.534c2.033-1.707 4.387-2.561 7.055-2.561 2.669 0 5.022.854 7.056 2.561zm0 3.214c-1.762-2.36-4.113-3.542-7.057-3.542-2.941 0-5.293 1.182-7.055 3.542V33.81c1.762 2.361 4.113 3.541 7.055 3.541 2.943 0 5.295-1.18 7.057-3.541V22.312z"/><path fill="#FEFEFE" d="M38.491 18.604v2.685l-6.288-1.343zm-38.1 2.508v-2.685l6.287 1.343zM21.18 39.104h-2.685l1.342-6.288zM18.332.772h2.685L19.674 7.06z"/></svg>